<svg xmlns="http://www.w3.org/2000/svg" viewBox="0 0 512 512" role="img" aria-label="Thumb Ledger">
  <rect width="512" height="512" rx="112" fill="#16a34a"/>
  <path fill="#dcfce7" d="M146 126h220c22 0 40 18 40 40v246H154c-26 0-48-22-48-48V166c0-22 18-40 40-40Z"/>
  <path fill="#052e16" d="M170 188h168c11 0 20 9 20 20s-9 20-20 20H170c-11 0-20-9-20-20s9-20 20-20Zm0 76h124c11 0 20 9 20 20s-9 20-20 20H170c-11 0-20-9-20-20s9-20 20-20Zm0 76h78c11 0 20 9 20 20s-9 20-20 20h-78c-11 0-20-9-20-20s9-20 20-20Z"/>
  <path fill="#86efac" d="M328 318c0-25 20-45 45-45h18c11 0 20 9 20 20v119h-83v-94Z"/>
  <path fill="#052e16" d="M374 300c-18 0-32 14-32 32v34c0 18 14 32 32 32s32-14 32-32v-34c0-18-14-32-32-32Z"/>
</svg>
